<?xml version="1.0" encoding="utf-8"?>
<!-- Generator: Adobe Illustrator 25.0.1, SVG Export Plug-In . SVG Version: 6.00 Build 0)  -->
<svg version="1.1" id="Capa_1" xmlns="http://www.w3.org/2000/svg" xmlns:xlink="http://www.w3.org/1999/xlink" x="0px" y="0px"
	 viewBox="0 0 48 48" style="enable-background:new 0 0 48 48;" xml:space="preserve">

<path class="st0" d="M10.41,31.93c2.21-2.81,4.95-4.79,8.4-5.96c-2.44-2.24-3.55-4.92-2.91-8.16c0.4-2.06,1.49-3.73,3.18-4.98
	c3.46-2.57,8.21-2.06,11.1,1.14c2.48,2.75,3.42,7.89-0.96,11.99c3.37,1.18,6.15,3.12,8.4,6.02c0.2-0.34,0.38-0.61,0.52-0.9
	c1.48-3.01,1.97-6.17,1.48-9.48c-0.14-0.93,0.23-1.6,0.99-1.74c0.82-0.15,1.4,0.33,1.57,1.31c1.69,9.73-5.34,19.51-15.08,20.99
	C16.55,43.74,7.24,36.83,5.74,26.3C4.38,16.79,11.37,7.35,20.87,5.86c7.62-1.19,14.99,2.17,18.86,8.6c0.35,0.59,0.54,1.16,0.08,1.76
	c-0.59,0.78-1.62,0.67-2.21-0.28c-1.2-1.94-2.66-3.63-4.57-4.88c-5.37-3.54-11.02-3.98-16.65-0.87c-5.59,3.09-8.3,8.04-8.16,14.46
	C8.3,27.38,9.17,30.15,10.41,31.93z M23.48,39.8c4.89-0.02,9.01-1.8,11.97-4.89c0.45-0.47,0.54-0.79,0.11-1.36
	c-5.73-7.71-17.39-7.71-23.13-0.01c-0.42,0.56-0.37,0.89,0.1,1.36C15.72,38.1,19.53,39.76,23.48,39.8z M24.02,13.79
	c-3.16-0.01-5.72,2.55-5.71,5.69c0.01,3.1,2.57,5.65,5.67,5.67c3.12,0.02,5.72-2.59,5.71-5.72C29.68,16.33,27.13,13.8,24.02,13.79z
	 M32.18,46.56c2.21-0.8,4.24-1.91,6.12-3.31c0.8-0.6,0.98-1.36,0.49-1.99c-0.48-0.62-1.2-0.67-1.99-0.12
	c-0.07,0.05-0.14,0.1-0.21,0.15c-4.36,3.12-9.21,4.47-14.56,4C11.37,44.36,2.91,35.4,2.61,24.66c-0.13-4.81,1.2-9.2,4-13.13
	c0.05-0.07,0.1-0.14,0.15-0.21C7.41,10.42,7.4,9.7,6.73,9.2C6.08,8.71,5.32,8.91,4.69,9.77c-3.73,5.14-5.27,10.89-4.48,17.19
	C1.7,38.98,11.89,47.95,24.23,48C26.79,47.97,29.53,47.52,32.18,46.56z M14.42,2.03c-1.7,0.81-3.3,1.86-4.9,2.87
	C8.84,5.33,8.77,6.15,9.19,6.72c0.43,0.59,1.15,0.69,1.84,0.25c0.15-0.09,0.28-0.2,0.42-0.3c4.34-3.1,9.16-4.44,14.48-3.97
	c13.94,1.23,23.02,15.52,18.11,28.63c-0.73,1.94-1.99,3.67-2.93,5.54c-0.22,0.43-0.3,1.06-0.15,1.5c0.11,0.31,0.73,0.66,1.08,0.62
	c0.44-0.05,0.96-0.39,1.23-0.77c3.76-5.12,5.3-10.87,4.52-17.17C46.3,9.02,36.15,0.07,23.68,0C20.7,0.04,17.45,0.58,14.42,2.03z"/>
</svg>
