<svg id="Capa_1" data-name="Capa 1" xmlns="http://www.w3.org/2000/svg" viewBox="0 0 60 60"><defs></defs><path class="cls-1" d="M46.75,56.89H12.91A6.87,6.87,0,0,1,6.05,50V16.2a6.87,6.87,0,0,1,6.86-6.86H46.75A6.86,6.86,0,0,1,53.6,16.2V50A6.86,6.86,0,0,1,46.75,56.89ZM12.91,11.61A4.59,4.59,0,0,0,8.33,16.2V50a4.59,4.59,0,0,0,4.58,4.58H46.75A4.59,4.59,0,0,0,51.33,50V16.2a4.59,4.59,0,0,0-4.58-4.59Z"/><path class="cls-1" d="M44.39,39.62a1.14,1.14,0,0,1-1.14-1.13V6.82a4.55,4.55,0,0,0-4.54-4.55H1.14A1.14,1.14,0,1,1,1.14,0H38.71a6.82,6.82,0,0,1,6.81,6.82V38.49A1.13,1.13,0,0,1,44.39,39.62Z"/><path class="cls-1" d="M58.86,48.78H20.94A6.81,6.81,0,0,1,14.12,42V24.18A1.19,1.19,0,0,1,15.2,23a1.14,1.14,0,0,1,1.2,1.14V42a4.54,4.54,0,0,0,4.54,4.54H58.79A1.19,1.19,0,0,1,60,47.6,1.13,1.13,0,0,1,58.86,48.78Z"/><path class="cls-1" d="M38.28,20.34,36,18.64a.82.82,0,0,0-1.16.17l-3.47,4.71a.85.85,0,0,0,.17,1.17l2,1.45-1.25,1.69-2-1.48a.83.83,0,0,0-1.16.18l-5,6.75a.82.82,0,0,0,.17,1.16l.64.47L23.66,36.6a.77.77,0,0,0,.16,1.07l.14.11L20.91,42.5a.08.08,0,0,0,.12.1l3.79-4.19.11.08A.77.77,0,0,0,26,38.33l1.25-1.7.88.65a.83.83,0,0,0,1.16-.18l5-6.75a.82.82,0,0,0-.17-1.16l-.84-.61L35,26.21l3.47-4.71A.83.83,0,0,0,38.28,20.34Z"/></svg>