<svg id="Capa_1" data-name="Capa 1" xmlns="http://www.w3.org/2000/svg" viewBox="0 0 60 76.27"><defs></defs><path class="cls-1" d="M46.75,56.89H12.91A6.87,6.87,0,0,1,6.05,50V16.2a6.87,6.87,0,0,1,6.86-6.86H46.75A6.86,6.86,0,0,1,53.6,16.2V50A6.86,6.86,0,0,1,46.75,56.89ZM12.91,11.61A4.59,4.59,0,0,0,8.33,16.2V50a4.59,4.59,0,0,0,4.58,4.58H46.75A4.59,4.59,0,0,0,51.33,50V16.2a4.59,4.59,0,0,0-4.58-4.59Z"/><path class="cls-1" d="M44.39,39.62a1.14,1.14,0,0,1-1.14-1.13V6.82a4.55,4.55,0,0,0-4.54-4.55H1.14A1.14,1.14,0,1,1,1.14,0H38.71a6.82,6.82,0,0,1,6.81,6.82V38.49A1.13,1.13,0,0,1,44.39,39.62Z"/><path class="cls-1" d="M58.86,48.78H20.94A6.81,6.81,0,0,1,14.12,42V24.18A1.19,1.19,0,0,1,15.2,23a1.14,1.14,0,0,1,1.2,1.14V42a4.54,4.54,0,0,0,4.54,4.54H58.79A1.19,1.19,0,0,1,60,47.6,1.13,1.13,0,0,1,58.86,48.78Z"/><path class="cls-1" d="M38.28,20.34,36,18.64a.82.82,0,0,0-1.16.17l-3.47,4.71a.85.85,0,0,0,.17,1.17l2,1.45-1.25,1.69-2-1.48a.83.83,0,0,0-1.16.18l-5,6.75a.82.82,0,0,0,.17,1.16l.64.47L23.66,36.6a.77.77,0,0,0,.16,1.07l.14.11L20.91,42.5a.08.08,0,0,0,.12.1l3.79-4.19.11.08A.77.77,0,0,0,26,38.33l1.25-1.7.88.65a.83.83,0,0,0,1.16-.18l5-6.75a.82.82,0,0,0-.17-1.16l-.84-.61L35,26.21l3.47-4.71A.83.83,0,0,0,38.28,20.34Z"/><path class="cls-1" d="M3.09,75.86a.93.93,0,0,1-.64.26.87.87,0,0,1-.65-.26.82.82,0,0,1-.26-.63V66.77a.86.86,0,0,1,.26-.63.94.94,0,0,1,.68-.26.85.85,0,0,1,.62.26.83.83,0,0,1,.27.63v8.46A.81.81,0,0,1,3.09,75.86Z"/><path class="cls-1" d="M11.66,69a4.51,4.51,0,0,1,.57,2.45v3.75a.85.85,0,0,1-.25.63.83.83,0,0,1-.63.26.86.86,0,0,1-.63-.26.88.88,0,0,1-.24-.63V71.48a2.14,2.14,0,0,0-.34-1.26A1.34,1.34,0,0,0,9,69.76a1.77,1.77,0,0,0-1.33.49,1.7,1.7,0,0,0-.48,1.23v3.75a.85.85,0,0,1-.25.63.83.83,0,0,1-.63.26.86.86,0,0,1-.63-.26.88.88,0,0,1-.24-.63v-6a.89.89,0,0,1,.24-.64.85.85,0,0,1,.63-.25.82.82,0,0,1,.63.25.86.86,0,0,1,.25.64v.25a3.51,3.51,0,0,1,1-.91,2.72,2.72,0,0,1,1.4-.38A2.26,2.26,0,0,1,11.66,69Z"/><path class="cls-1" d="M20.92,75.24a.8.8,0,0,1-.29.62.93.93,0,0,1-.6.25.83.83,0,0,1-.65-.3L16.75,73l-.72.66v1.54a.85.85,0,0,1-.25.63.88.88,0,0,1-1.25,0,.85.85,0,0,1-.25-.63v-9a.87.87,0,0,1,.25-.64.91.91,0,0,1,1.25,0,.87.87,0,0,1,.25.64V71.6l3.13-3a.91.91,0,0,1,.65-.27.77.77,0,0,1,.57.27.8.8,0,0,1,.26.54.88.88,0,0,1-.35.66l-2.21,2,2.56,2.77A1,1,0,0,1,20.92,75.24Z"/><path class="cls-1" d="M33.44,66.56A4.38,4.38,0,0,1,35,68.41a6.74,6.74,0,0,1,0,5.19,4.35,4.35,0,0,1-1.51,1.84,4.05,4.05,0,0,1-2.36.68H27.59a.89.89,0,0,1-.9-.89V66.77a.89.89,0,0,1,.9-.89h3.49A4.05,4.05,0,0,1,33.44,66.56Zm-.53,6.91A4.31,4.31,0,0,0,33.57,71a4.22,4.22,0,0,0-.67-2.46,2.22,2.22,0,0,0-2-1H28.52v6.88h2.42A2.24,2.24,0,0,0,32.91,73.47Z"/><path class="cls-1" d="M44,68.4a.88.88,0,0,1,.24.64v6.19a.88.88,0,0,1-.24.63.86.86,0,0,1-.63.26.8.8,0,0,1-.62-.25.87.87,0,0,1-.26-.63,2.84,2.84,0,0,1-1,.73,3,3,0,0,1-1.31.3,3.36,3.36,0,0,1-1.82-.52A3.7,3.7,0,0,1,37,74.31a4.47,4.47,0,0,1-.47-2.09,4.63,4.63,0,0,1,.46-2.1,3.62,3.62,0,0,1,1.28-1.45,3.23,3.23,0,0,1,1.79-.52,3.41,3.41,0,0,1,1.32.26,3.29,3.29,0,0,1,1,.65v0a.85.85,0,0,1,.25-.63.83.83,0,0,1,.63-.26A.85.85,0,0,1,44,68.4Zm-2,5.56a2.56,2.56,0,0,0,.6-1.74,2.61,2.61,0,0,0-.6-1.76,2,2,0,0,0-3.08,0,2.87,2.87,0,0,0,0,3.5,1.91,1.91,0,0,0,1.54.7A1.93,1.93,0,0,0,41.93,74Z"/><path class="cls-1" d="M50.26,74.67a.77.77,0,0,1,.17.51.77.77,0,0,1-.43.67,1.79,1.79,0,0,1-1,.27,2.8,2.8,0,0,1-1.53-.39c-.42-.26-.62-.8-.62-1.64v-4H46.2a.8.8,0,0,1-.58-.23.79.79,0,0,1-.24-.59.74.74,0,0,1,.24-.56.8.8,0,0,1,.58-.23h.68v-.93a.87.87,0,0,1,.89-.9.82.82,0,0,1,.61.26.86.86,0,0,1,.25.64v.93h1a.82.82,0,0,1,.82.82.73.73,0,0,1-.24.56.76.76,0,0,1-.58.23h-1v4a.55.55,0,0,0,.16.45.68.68,0,0,0,.44.14,1.16,1.16,0,0,0,.32-.06.86.86,0,0,1,.34-.07A.45.45,0,0,1,50.26,74.67Z"/><path class="cls-1" d="M58.77,72.6a1,1,0,0,1-.62.21H53.33a2.18,2.18,0,0,0,.8,1.36,2.29,2.29,0,0,0,1.42.49,3.31,3.31,0,0,0,.94-.11,2.42,2.42,0,0,0,.53-.24l.27-.16a1.08,1.08,0,0,1,.5-.14.73.73,0,0,1,.52.22.7.7,0,0,1,.22.52.88.88,0,0,1-.41.71A3.28,3.28,0,0,1,57,76a4.47,4.47,0,0,1-3.54-.28,3.61,3.61,0,0,1-1.41-1.41,4.11,4.11,0,0,1-.49-2,4.48,4.48,0,0,1,.52-2.21,3.84,3.84,0,0,1,1.39-1.46,3.66,3.66,0,0,1,1.84-.5,3.47,3.47,0,0,1,1.83.53,3.91,3.91,0,0,1,1.36,1.41A3.86,3.86,0,0,1,59.05,72,.82.82,0,0,1,58.77,72.6Zm-5.43-1.25h3.83v-.1a1.51,1.51,0,0,0-.6-1,1.86,1.86,0,0,0-1.23-.44A1.81,1.81,0,0,0,53.34,71.35Z"/></svg>