<svg id="Capa_1" data-name="Capa 1" xmlns="http://www.w3.org/2000/svg" viewBox="0 0 48 48"><defs></defs><path class="cls-1" d="M24.23,48A24.08,24.08,0,0,1,.2,27,23.43,23.43,0,0,1,4.69,9.77c.62-.86,1.38-1.07,2-.57s.67,1.21,0,2.12l-.15.21a21,21,0,0,0-4,13.13A21.43,21.43,0,0,0,22,45.3a21.11,21.11,0,0,0,14.56-4l.21-.16c.79-.54,1.51-.5,2,.13s.3,1.39-.5,2a23.86,23.86,0,0,1-6.12,3.31A24.36,24.36,0,0,1,24.23,48Z"/><path class="cls-1" d="M23.67,0A24.11,24.11,0,0,1,47.8,21.06a23.28,23.28,0,0,1-4.52,17.17,2,2,0,0,1-1.23.77A1.3,1.3,0,0,1,41,38.38a2.18,2.18,0,0,1,.15-1.5,56.6,56.6,0,0,0,2.94-5.54A21.36,21.36,0,0,0,25.94,2.7a21,21,0,0,0-14.48,4c-.15.1-.28.21-.43.3a1.29,1.29,0,0,1-1.84-.26A1.23,1.23,0,0,1,9.52,4.9,48.22,48.22,0,0,1,14.42,2,22.13,22.13,0,0,1,23.67,0Z"/><path class="cls-1" d="M36.66,24.13,33.49,22.4l2.13-4.88c.46-1,.71-2.2-.32-2.67s-7.17-3.54-7.17-3.54L29.9,7.37a.6.6,0,0,0-.3-.67.63.63,0,0,0-.83.25c-.05.08-.08.17-.13.25l-3.27,7-.46,1H24.8a1.54,1.54,0,0,0-1.95,1c-.16.35-.33.7-.5,1.06l-.66-.3a.64.64,0,0,0-1,.35c-.11.21-.21.42-.32.65L19,17.15c.12-.25.23-.47.32-.69a.63.63,0,0,0-.28-.88.62.62,0,0,0-.86.35c-.4.84-.8,1.68-1.19,2.52a.63.63,0,1,0,1.14.54c.12-.22.22-.45.33-.69l1.47.7c-.12.24-.22.46-.32.68a.64.64,0,0,0,.33.92c.21.11.44.2.68.32-.21.44-.41.85-.59,1.28a.3.3,0,0,1-.39.18,2.11,2.11,0,0,0-2.31,1.13c-1.26,2.64-2.51,5.3-3.75,8a2.22,2.22,0,0,0-.14,1.48,2.47,2.47,0,0,0,.88,1.35c-.31.65-.61,1.29-.92,1.92.09,1.1.19,2.19.28,3.29.41.46.64.48,1.16.12A9.79,9.79,0,0,1,15.7,39a4.41,4.41,0,0,0,2.18-2.61l.06-.11c0-.18.15-.21.33-.18a2.29,2.29,0,0,0,2.56-1.57C21,34.14,23.77,28,24,27.67a2.52,2.52,0,0,0,.57-1.9,2.39,2.39,0,0,0-.93-1.58l.71-1.49.24.11,6.43,3c1.85.87,1.82,1,3.67,1.9a2.08,2.08,0,0,0,2.8-1A2,2,0,0,0,36.66,24.13ZM34.15,15.8a.65.65,0,0,1,.34.82c-.32.89-1.23,3.18-1.69,4.15a1.09,1.09,0,0,1-1.16.66,3.55,3.55,0,0,1-2.25-1.17,1.05,1.05,0,0,1-.13-1.19c.53-1.15,1.34-2.86,1.88-4a.63.63,0,0,1,.84-.29Zm-6.63-3.23c1,.49,2.77,1.36,2.77,1.36s-.47,1-.83,1.73-.67,1.41-1,2.12a3.66,3.66,0,0,0-.56,2l-1.78-.84.46-1a1.61,1.61,0,0,0-.53-2.27C26.6,14.5,27,13.77,27.52,12.57Zm-3.45,3.91a.26.26,0,0,1,.39-.13c.31.15.62.27.91.44a.44.44,0,0,1,.16.38c-.16.41-.36.8-.56,1.22L23.5,17.7C23.69,17.28,23.88,16.88,24.07,16.48ZM14.83,38a3.47,3.47,0,0,1,.61-3.13l1.4.66A3.66,3.66,0,0,1,14.83,38Zm8.36-11.44q-1.8,3.84-3.61,7.66a1,1,0,0,1-1.43.52c-1-.46-2-.92-2.94-1.39A1,1,0,0,1,14.7,32q1.82-3.87,3.64-7.72a1.1,1.1,0,0,1,.87-.64,3.7,3.7,0,0,1,.57.16l2.89,1.36A1,1,0,0,1,23.19,26.56ZM21,22.93l.7-1.47,1.47.69-.69,1.48Zm15.31,3.3a.8.8,0,0,1-1,.4c-.37-.15-.73-.34-1.09-.51-5-2.34-8-4-13-6.29L21,19.69l.68-1.46,2,.93C28.28,21.35,31,22.82,35.68,25l.31.16A.8.8,0,0,1,36.33,26.23Z"/></svg>