<svg id="Capa_1" data-name="Capa 1" xmlns="http://www.w3.org/2000/svg" xmlns:xlink="http://www.w3.org/1999/xlink" viewBox="0 0 760 720.6"><defs><clipPath id="clip-path"><rect class="cls-1" x="-387.03" y="-151.36" width="255.16" height="453.62"/></clipPath></defs><g class="cls-2"><g class="cls-3"></g></g><g class="cls-3"><path class="cls-4" d="M592.12,720.6H163.57a87,87,0,0,1-86.88-86.88V205.17a87,87,0,0,1,86.88-86.88H592.12A87,87,0,0,1,679,205.17V633.72A87,87,0,0,1,592.12,720.6ZM163.57,147.1a58.14,58.14,0,0,0-58.07,58.07V633.72a58.13,58.13,0,0,0,58.07,58.06H592.12a58.12,58.12,0,0,0,58.06-58.06V205.17a58.13,58.13,0,0,0-58.06-58.07Z"/><path class="cls-4" d="M562.23,501.9a14.41,14.41,0,0,1-14.41-14.41V86.32a57.57,57.57,0,0,0-57.5-57.51H14.41A14.41,14.41,0,1,1,14.41,0H490.32a86.42,86.42,0,0,1,86.32,86.32V487.49A14.41,14.41,0,0,1,562.23,501.9Z"/><path class="cls-4" d="M745.59,617.92H265.19a86.32,86.32,0,0,1-86.31-86.32V306.32c0-7.8,5.85-14.79,13.64-15.19a14.4,14.4,0,0,1,15.17,14.38V531.6a57.5,57.5,0,0,0,57.5,57.5H744.66c7.88,0,15,5.9,15.33,13.78A14.4,14.4,0,0,1,745.59,617.92Z"/></g></svg>