<svg width="60" height="59" viewBox="0 0 60 59" fill="none" xmlns="http://www.w3.org/2000/svg">
<path d="M30 28.5024C25.875 28.5024 22.5 27.1723 19.875 24.5121C17.25 21.8519 15.9375 18.4316 15.9375 14.2512C15.9375 10.0709 17.25 6.65056 19.875 3.99034C22.5 1.33011 25.875 0 30 0C34.125 0 37.5 1.33011 40.125 3.99034C42.75 6.65056 44.0625 10.0709 44.0625 14.2512C44.0625 18.4316 42.75 21.8519 40.125 24.5121C37.5 27.1723 34.125 28.5024 30 28.5024ZM0 59V50.0692C0 47.6624 0.59375 45.6039 1.78125 43.8937C2.96875 42.1836 4.5 40.8851 6.375 39.9984C10.5625 38.0982 14.5781 36.6731 18.4219 35.723C22.2656 34.7729 26.125 34.2979 30 34.2979C33.875 34.2979 37.7188 34.7888 41.5312 35.7705C45.3438 36.7523 49.3438 38.1616 53.5312 39.9984C55.4688 40.8851 57.0312 42.1836 58.2188 43.8937C59.4062 45.6039 60 47.6624 60 50.0692V59H0Z" fill="#D9D9D9"/>
</svg>
