<svg width="70" height="57" viewBox="0 0 70 57" fill="none" xmlns="http://www.w3.org/2000/svg">
<path d="M6.91967 56.1666L11.1561 25.0416H3.46134C2.30856 25.0416 1.40075 24.5805 0.737898 23.6583C0.0750511 22.736 -0.112275 21.7274 0.175919 20.6322L5.10404 3.34054C5.3346 2.59124 5.73807 1.98603 6.31446 1.52492C6.89085 1.06381 7.58252 0.833252 8.38946 0.833252H60.7832C61.5902 0.833252 62.2818 1.06381 62.8582 1.52492C63.4346 1.98603 63.8381 2.59124 64.0686 3.34054L68.9968 20.6322C69.285 21.7274 69.0976 22.736 68.4348 23.6583C67.7719 24.5805 66.8641 25.0416 65.7113 25.0416H58.103L62.253 56.1666H57.0655L54.7311 38.8749H14.4415L12.1072 56.1666H6.91967ZM52.829 25.0416H16.2572L15.0468 33.6874H53.953L52.829 25.0416Z" fill="#E1E2E1"/>
</svg>
